:version 1.10
:name ASF
:units
  mass 1
  length 1
  angle deg
:documentation
  ASF file generated by Kaydara
:root
  axis xyz
  order  tx ty tz rx ry rz
  position 0 0 0
  orientation 0 0 0
:bonedata
  begin
    id 1
    name lfemurDummy
    direction 0.61522 -0.761478 0.204097
    length 5.68318
    axis 0 -0 0 xyz
  end
  begin
    id 2
    name lfemur
    direction 0.34202 -0.939693 -5.84747e-008
    length 16.9147
    axis 0 -0 20 xyz
    dof rx ry rz
    limits( -inf , inf )
( -inf , inf )
( -inf , inf )

  end
  begin
    id 3
    name ltibia
    direction 0.34202 -0.939693 1.20839e-009
    length 18.0532
    axis 0 -0 20 xyz
    dof rz ry rx
    limits( -inf , inf )
( -inf , inf )
( -inf , inf )

  end
  begin
    id 4
    name lfoot
    direction 0.0841971 -0.23133 0.969225
    length 5.23822
    axis -90 7.62852e-016 20 xyz
    dof ry rx rz
    limits( -inf , inf )
( -inf , inf )
( -inf , inf )

  end
  begin
    id 5
    name ltoes
    direction 0 0 0
    length 0
    axis 0 0 0 xyz
    dof rz ry rx
    limits( -inf , inf )
( -inf , inf )
( -inf , inf )

  end
  begin
    id 6
    name rfemurDummy
    direction -0.625247 -0.75382 0.202044
    length 5.74091
    axis 0 -0 0 xyz
  end
  begin
    id 7
    name rfemur
    direction -0.34202 -0.939693 -1.47013e-008
    length 16.4922
    axis 0 -0 -20 xyz
    dof rx ry rz
    limits( -inf , inf )
( -inf , inf )
( -inf , inf )

  end
  begin
    id 8
    name rtibia
    direction -0.34202 -0.939693 -7.74345e-010
    length 18.2421
    axis 0 -0 -20 xyz
    dof rz ry rx
    limits( -inf , inf )
( -inf , inf )
( -inf , inf )

  end
  begin
    id 9
    name rfoot
    direction -0.124331 -0.341598 0.931586
    length 5.45787
    axis -90 -7.62852e-016 -20 xyz
    dof ry rx rz
    limits( -inf , inf )
( -inf , inf )
( -inf , inf )

  end
  begin
    id 10
    name rtoes
    direction 0 0 0
    length 0
    axis 0 0 0 xyz
    dof rz ry rx
    limits( -inf , inf )
( -inf , inf )
( -inf , inf )

  end
  begin
    id 11
    name lowerbackDummy
    direction 0 0 0
    length 0
    axis 0 -0 0 xyz
  end
  begin
    id 12
    name lowerback
    direction -0.0218484 0.994884 -0.0986304
    length 4.45607
    axis 0 -0 0 xyz
    dof rx ry rz
    limits( -inf , inf )
( -inf , inf )
( -inf , inf )

  end
  begin
    id 13
    name upperback
    direction -0.00973057 0.999717 -0.0217111
    length 4.47449
    axis 0 -0 0 xyz
    dof rx ry rz
    limits( -inf , inf )
( -inf , inf )
( -inf , inf )

  end
  begin
    id 14
    name thorax
    direction -0.000928171 0.999699 0.0245198
    length 4.50973
    axis 0 -0 0 xyz
    dof rx ry rz
    limits( -inf , inf )
( -inf , inf )
( -inf , inf )

  end
  begin
    id 15
    name rclavicle
    direction -0.9009 0.425937 -0.0834055
    length 7.28587
    axis 0 -0 0 xyz
    dof rx ry rz
    limits( -inf , inf )
( -inf , inf )
( -inf , inf )

  end
  begin
    id 16
    name rhumerus
    direction -1 -2.23604e-007 -1.42637e-007
    length 13.5704
    axis 180 30 90 xyz
    dof rx ry rz
    limits( -inf , inf )
( -inf , inf )
( -inf , inf )

  end
  begin
    id 17
    name rradius
    direction -1 5.68281e-008 -4.4952e-007
    length 8.06782
    axis 180 30 90 xyz
    dof rz ry rx
    limits( -inf , inf )
( -inf , inf )
( -inf , inf )

  end
  begin
    id 18
    name rwrist
    direction -1 1.51393e-007 1.38143e-007
    length 4.03391
    axis -90 -90 0 xyz
    dof rz rx ry
    limits( -inf , inf )
( -inf , inf )
( -inf , inf )

  end
  begin
    id 19
    name rthumb
    direction 0 0 0
    length 0
    axis 0 0 0 xyz
    dof ry rx rz
    limits( -inf , inf )
( -inf , inf )
( -inf , inf )

  end
  begin
    id 20
    name rhand
    direction -1 -3.34077e-007 -5.59631e-007
    length 1.29744
    axis -90 -90 0 xyz
    dof ry rx rz
    limits( -inf , inf )
( -inf , inf )
( -inf , inf )

  end
  begin
    id 21
    name rfingers
    direction 0 0 0
    length 0
    axis 0 0 0 xyz
    dof rz ry rx
    limits( -inf , inf )
( -inf , inf )
( -inf , inf )

  end
  begin
    id 22
    name lclavicle
    direction 0.940017 0.332249 -0.0773232
    length 8.29589
    axis 0 -0 0 xyz
    dof rx ry rz
    limits( -inf , inf )
( -inf , inf )
( -inf , inf )

  end
  begin
    id 23
    name lhumerus
    direction 1 7.41158e-008 -1.44768e-008
    length 12.0042
    axis 180 -30 -90 xyz
    dof rx ry rz
    limits( -inf , inf )
( -inf , inf )
( -inf , inf )

  end
  begin
    id 24
    name lradius
    direction 1 -1.32972e-007 3.10821e-007
    length 8.1902
    axis 180 -30 -90 xyz
    dof rz ry rx
    limits( -inf , inf )
( -inf , inf )
( -inf , inf )

  end
  begin
    id 25
    name lwrist
    direction 1 3.08957e-007 4.01394e-007
    length 4.09509
    axis -90 90 0 xyz
    dof rz rx ry
    limits( -inf , inf )
( -inf , inf )
( -inf , inf )

  end
  begin
    id 26
    name lthumb
    direction 0 0 0
    length 0
    axis 0 0 0 xyz
    dof ry rx rz
    limits( -inf , inf )
( -inf , inf )
( -inf , inf )

  end
  begin
    id 27
    name lhand
    direction 1 -1.64125e-007 -6.99514e-007
    length 1.37229
    axis -90 90 0 xyz
    dof ry rx rz
    limits( -inf , inf )
( -inf , inf )
( -inf , inf )

  end
  begin
    id 28
    name lfingers
    direction 0 0 0
    length 0
    axis 0 0 0 xyz
    dof rz ry rx
    limits( -inf , inf )
( -inf , inf )
( -inf , inf )

  end
  begin
    id 29
    name lowerneck
    direction -0.030798 0.998024 0.0547665
    length 3.93918
    axis 0 -0 0 xyz
    dof rx ry rz
    limits( -inf , inf )
( -inf , inf )
( -inf , inf )

  end
  begin
    id 30
    name upperneck
    direction 0.0531588 0.996611 -0.0627736
    length 3.95491
    axis 0 -0 0 xyz
    dof rx ry rz
    limits( -inf , inf )
( -inf , inf )
( -inf , inf )

  end
  begin
    id 31
    name head
    direction 0 0 0
    length 0
    axis 0 0 0 xyz
    dof rx ry rz
    limits( -inf , inf )
( -inf , inf )
( -inf , inf )

  end
:hierarchy
  begin
    root lfemurDummy rfemurDummy lowerbackDummy
    lfemurDummy lfemur
    lfemur ltibia
    ltibia lfoot
    lfoot ltoes
    rfemurDummy rfemur
    rfemur rtibia
    rtibia rfoot
    rfoot rtoes
    lowerbackDummy lowerback
    lowerback upperback
    upperback thorax
    thorax rclavicle lclavicle lowerneck
    rclavicle rhumerus
    rhumerus rradius
    rradius rwrist
    rwrist rthumb rhand
    rhand rfingers
    lclavicle lhumerus
    lhumerus lradius
    lradius lwrist
    lwrist lthumb lhand
    lhand lfingers
    lowerneck upperneck
    upperneck head
  end

:SAMPLES-PER-SECOND 30
:FULLY-SPECIFIED
:DEGREES
29
root  -1.31523337 37.44310995 5.896911095 -168 -77.73419952 165.776001
lowerback  15.56029987 1.095340014 -8.475629807
upperback  2.682600021 -0.09593400359 0.309928
thorax  -5.849720001 0.0466381982 5.166719913
lowerneck  -7.959819794 16.00720024 -0.01337889954
upperneck  7.188920021 22.86109924 -15.27350044
head  5.292580128 10.29850006 -2.83288002
lclavicle  0 -9.442270133e-015 7.951389973e-016
lhumerus  -15.51060009 2.109630108 33.74359894
lradius  2.073947509e-031 -2.857898838e-031 125.9680023
lwrist  0 8.827812596e-031 48.74879837
lhand  -1.496451383e-031 -27.76390076 20.11240005
lfingers  90 7.125020027 -90
lthumb  89.89689403 5.08795885 91.16245106
rclavicle  0 -9.442270133e-015 7.951389973e-016
rhumerus  -53.7018013 26.39500046 -85.50360107
rradius  -9.511327279e-032 3.400616205e-031 105.6259995
rwrist  1.412450015e-030 -6.620859447e-032 -26.76099968
rhand  -7.920061211e-032 -33.2840004 9.303460121
rfingers  -90 -7.125020027 -90
rthumb  -92.93752616 -24.25625642 -97.11982154
rfemur  -2.705879927 25.64699936 -2.585690022
rtibia  -0 0 50.86410141
rfoot  -4.421122076e-032 -3.2739501 -6.326000214
rtoes  5.373923086 19.29304026 -105.8922705
lfemur  -23.79940033 0.03122390062 3.192879915
ltibia  -0 0 51.34130096
lfoot  4.414887655e-032 -1.208089948 0.9086560011
ltoes  -4.250644065 -19.5611806 -102.515957
30
root  -1.467320018 37.4637784 6.062000004 -168.0280151 -80.19740295 165.9110107
lowerback  15.14459991 0.6062409878 -8.856619835
upperback  2.893470049 -0.7358890176 0.5593649745
thorax  -5.287879944 -0.2907769978 5.770870209
lowerneck  -8.364370346 16.1303997 -0.3845199943
upperneck  6.896570206 23.01689911 -15.03950024
head  5.208950043 10.3842001 -2.686300039
lclavicle  0 -9.442270133e-015 7.951389973e-016
lhumerus  -10.62110043 3.920469999 31.54870033
lradius  1.724629848e-031 -3.081313993e-031 119.2360001
lwrist  -7.062250077e-031 3.531125038e-031 47.23740005
lhand  -1.496451383e-031 -27.76390076 20.11240005
lfingers  90 7.125020027 -90
lthumb  89.89689403 5.08795885 91.16245106
rclavicle  0 -9.442270133e-015 7.951389973e-016
rhumerus  -53.41040039 26.69860077 -84.84120178
rradius  -1.012816753e-031 3.382757198e-031 106.6679993
rwrist  7.062250077e-031 8.827812596e-032 -26.22789955
rhand  -7.920061211e-032 -33.2840004 9.303460121
rfingers  -90 -7.125020027 -90
rthumb  -92.93752616 -24.25625642 -97.11982154
rfemur  -1.798640013 26.24169922 -1.502519965
rtibia  -0 0 50.56240082
rfoot  -4.413939793e-032 0.2232089937 -4.61534977
rtoes  5.373923086 19.29304026 -105.8922705
lfemur  -25.81579971 0.173604995 3.605449915
ltibia  -0 0 52.34820175
lfoot  5.517409362e-032 -0.1775439978 -1.399240017
ltoes  -4.250644065 -19.5611806 -102.515957
31
root  -1.644251103 37.45911065 6.223999985 -171.3519897 -83.01119995 169.1699829
lowerback  14.83769989 0.0688849017 -8.778189659
upperback  3.137900114 -1.367570043 0.9717379808
thorax  -4.74421978 -0.6355149746 6.276150227
lowerneck  -8.565759659 16.27449989 -1.153650045
upperneck  6.602940083 23.19210052 -14.50150013
head  5.008150101 10.50129986 -2.430599928
lclavicle  0 -9.442270133e-015 7.951389973e-016
lhumerus  -5.122300148 5.446360111 30.18709946
lradius  1.279756624e-031 -3.291058647e-031 111.2490005
lwrist  -7.062250077e-031 1.765562519e-031 44.00189972
lhand  -1.496451383e-031 -27.76390076 20.11240005
lfingers  90 7.125020027 -90
lthumb  89.89689403 5.08795885 91.16245106
rclavicle  0 -9.442270133e-015 7.951389973e-016
rhumerus  -53.17219925 27.01259995 -84.10520172
rradius  -1.088304981e-031 3.359231505e-031 107.9509964
rwrist  1.412450015e-030 -4.413906298e-032 -26.20129967
rhand  -7.920061211e-032 -33.2840004 9.303460121
rfingers  -90 -7.125020027 -90
rthumb  -92.93752616 -24.25625642 -97.11982154
rfemur  -0.09279730171 27.02050018 0.5183749795
rtibia  -0 0 49.76100159
rfoot  -4.422930785e-032 3.660729885 -3.487349987
rtoes  5.373923086 19.29304026 -105.8922705
lfemur  -27.6067009 0.09394290298 4.406670094
ltibia  -0 0 52.97529984
lfoot  8.828105575e-032 0.4667919874 -3.454580069
ltoes  -4.250644065 -19.5611806 -102.515957
32
root  -1.860035498 37.45333454 6.365911228 -175.1069946 -85.9611969 172.8640137
lowerback  14.38949966 -0.3639239967 -8.867250443
upperback  3.266839981 -1.889809966 1.145889997
thorax  -4.26154995 -0.9188979864 6.586279869
lowerneck  -8.37250042 16.30890083 -1.682579994
upperneck  6.425330162 23.16909981 -13.73630047
head  4.762340069 10.55760002 -2.19382
lclavicle  0 -9.442270133e-015 7.951389973e-016
lhumerus  1.481289983 6.465829849 29.36400032
lradius  7.314493265e-032 -3.454537005e-031 101.9550018
lwrist  -7.062250077e-031 2.648343779e-031 39.79349899
lhand  -1.496451383e-031 -27.76390076 20.11240005
lfingers  90 7.125020027 -90
lthumb  89.89689403 5.08795885 91.16245106
rclavicle  0 -9.442270133e-015 7.951389973e-016
rhumerus  -53.1794014 26.92889977 -83.6753006
rradius  -1.17429773e-031 3.330145474e-031 109.4240036
rwrist  7.062250077e-031 1.765562519e-031 -26.40029907
rhand  -7.920061211e-032 -33.2840004 9.303460121
rfingers  -90 -7.125020027 -90
rthumb  -92.93752616 -24.25625642 -97.11982154
rfemur  2.06230998 27.8057003 2.546269894
rtibia  -0 0 48.57699966
rfoot  -4.447738352e-032 7.07144022 -2.502899885
rtoes  5.373923086 19.29304026 -105.8922705
lfemur  -29.27939987 -0.2978259921 4.773869991
ltibia  -0 0 53.0481987
lfoot  4.414054133e-032 0.4689309895 -4.99571991
ltoes  -4.250644065 -19.5611806 -102.515957
